# xmcd
#
# Track frame offsets: 
#        150
#        11589
#        20324
#        33471
#        51374
#        62040
#        75109
#        86675
#        96656
#        106394
#        117712
#        128309
#        139327
#        148928
#        159762
#        169645
#        179388
#        192767
#        204713
#        216570
#        233355
#        245615
#        256547
#        270144
#        282002
#        294473
#        307136
#        320726
#        332675
#        348792
#
# Disc length: 4808 seconds
#
# Revision: 0
# Processed by: cddbd v1.5.1PL0 Copyright (c) Steve Scherf et al.
# Submitted via: ExactAudioCopy v0.95a5
#
DISCID=ac12c61e
DTITLE=John Lee Hooker - Best Of
DYEAR=1900
DGENRE=Blues
TTITLE0=Boom, Boom
TTITLE1=Hobo Blues
TTITLE2=I Want To Hug You
TTITLE3=House Rent Boogie
TTITLE4=Want Ad Blues
TTITLE5=I'm So Excited
TTITLE6=Hard Headed Woman
TTITLE7=I Wanna Walk
TTITLE8=Onions
TTITLE9=What Do You Say
TTITLE10=Keep Your Hands To Yourself
TTITLE11=Send Me Your Pillow
TTITLE12=Run On
TTITLE13=I Want To Shout
TTITLE14=I'm Leaving (Baby)
TTITLE15=Dusty Road
TTITLE16=Trouble Blues
TTITLE17=Crawlin' Kingsnake
TTITLE18=Whiskey And Wimmen
TTITLE19=Blues Before Sunrise
TTITLE20=Crawlin' Black Spider
TTITLE21=Big Fine Woman
TTITLE22=Road Is So Rough
TTITLE23=I'm A Stranger
TTITLE24=I'm So Excited
TTITLE25=Baby Lee
TTITLE26=Time Is Marching
TTITLE27=Everybody's A Rockin'
TTITLE28=Mama, You've Got A Daughter
TTITLE29=I'm Mad Again
EXTD=
EXTT0=
EXTT1=
EXTT2=
EXTT3=
EXTT4=
EXTT5=
EXTT6=
EXTT7=
EXTT8=
EXTT9=
EXTT10=
EXTT11=
EXTT12=
EXTT13=
EXTT14=
EXTT15=
EXTT16=
EXTT17=
EXTT18=
EXTT19=
EXTT20=
EXTT21=
EXTT22=
EXTT23=
EXTT24=
EXTT25=
EXTT26=
EXTT27=
EXTT28=
EXTT29=
PLAYORDER=
